<?xml version="1.0" encoding="UTF-8" standalone="no"?>
<!-- Created with Inkscape (http://www.inkscape.org/) -->

<svg
   xmlns:dc="http://purl.org/dc/elements/1.1/"
   xmlns:cc="http://creativecommons.org/ns#"
   xmlns:rdf="http://www.w3.org/1999/02/22-rdf-syntax-ns#"
   xmlns:svg="http://www.w3.org/2000/svg"
   xmlns="http://www.w3.org/2000/svg"
   xmlns:sodipodi="http://sodipodi.sourceforge.net/DTD/sodipodi-0.dtd"
   xmlns:inkscape="http://www.inkscape.org/namespaces/inkscape"
   width="220mm"
   height="220mm"
   viewBox="0 0 779.52755 779.52756"
   id="svg2"
   version="1.1"
   inkscape:version="0.91 r13725"
   sodipodi:docname="icon.svg">
  <defs
     id="defs4" />
  <sodipodi:namedview
     id="base"
     pagecolor="#ffffff"
     bordercolor="#666666"
     borderopacity="1.0"
     inkscape:pageopacity="0.0"
     inkscape:pageshadow="2"
     inkscape:zoom="0.35"
     inkscape:cx="200.32736"
     inkscape:cy="665.34229"
     inkscape:document-units="px"
     inkscape:current-layer="layer1"
     showgrid="false"
     fit-margin-top="0"
     fit-margin-left="0"
     fit-margin-right="0"
     fit-margin-bottom="0"
     inkscape:window-width="1366"
     inkscape:window-height="724"
     inkscape:window-x="0"
     inkscape:window-y="21"
     inkscape:window-maximized="0" />
  <metadata
     id="metadata7">
    <rdf:RDF>
      <cc:Work
         rdf:about="">
        <dc:format>image/svg+xml</dc:format>
        <dc:type
           rdf:resource="http://purl.org/dc/dcmitype/StillImage" />
        <dc:title></dc:title>
      </cc:Work>
    </rdf:RDF>
  </metadata>
  <g
     inkscape:label="Layer 1"
     inkscape:groupmode="layer"
     id="layer1"
     transform="translate(-74.285706,-247.12036)">
    <ellipse
       style="fill:#000000;stroke:none;stroke-width:0;stroke-miterlimit:4;stroke-dasharray:none"
       id="path4158"
       cx="465.71429"
       cy="642.36218"
       rx="345.71429"
       ry="338.57144" />
    <flowRoot
       xml:space="preserve"
       id="flowRoot4218"
       style="font-style:normal;font-weight:normal;font-size:40px;line-height:125%;font-family:sans-serif;letter-spacing:0px;word-spacing:0px;fill:#000000;fill-opacity:1;stroke:none;stroke-width:1px;stroke-linecap:butt;stroke-linejoin:miter;stroke-opacity:1"
       transform="translate(74.285675,247.12036)"><flowRegion
         id="flowRegion4220"><rect
           id="rect4222"
           width="431.42856"
           height="340"
           x="197.14285"
           y="230.95616" /></flowRegion><flowPara
         id="flowPara4224">LR</flowPara></flowRoot>    <path
       style="fill:#ffff00;stroke:none;stroke-width:0;stroke-miterlimit:4;stroke-dasharray:none"
       id="path4232"
       d="m 308.57138,505.84139 c 0,28.13731 0,56.27463 0,84.41194 0,32.36097 0,64.72194 0,97.08291 -0.0717,18.84335 -0.41356,37.71673 1.88868,56.4639 0.95875,7.80704 2.68187,16.35466 4.13459,24.0981 2.84096,9.21249 3.87027,26.48587 11.97105,33.08387 -0.0719,-0.38239 -0.5826,-1.01722 -0.21583,-1.14718 0.75302,-0.26684 1.5758,0.2647 2.36554,0.38543 1.89788,0.29015 3.79698,0.57231 5.69713,0.84719 9.95161,1.43967 19.89956,2.57738 29.90423,3.5754 13.44162,1.28059 26.9352,1.81671 40.43092,2.02598 1.62231,0.0116 3.24462,0.0232 4.86694,0.0349 28.28351,0.20679 27.99106,40.20572 -0.29245,39.99893 l 0,0 c -1.73387,-0.0129 -3.46772,-0.0258 -5.20159,-0.0387 -14.61627,-0.23151 -29.22985,-0.82416 -43.78667,-2.21984 -15.60229,-1.56586 -41.01179,-2.89179 -54.57366,-10.31539 -3.20011,-1.7517 -5.9362,-4.24243 -8.90431,-6.36364 -1.7505,-2.07189 -3.67408,-4.00916 -5.25149,-6.21568 -9.66661,-13.52183 -12.69898,-30.47658 -16.3304,-46.31021 -1.85235,-9.96554 -3.43491,-17.67031 -4.65371,-27.86187 -2.38422,-19.93669 -2.15757,-40.00492 -2.04896,-60.04114 0,-32.36097 0,-64.72194 0,-97.08291 0,-28.13731 0,-56.27463 0,-84.41194 0,-28.28428 40,-28.28428 40,0 z"
       inkscape:connector-curvature="0" />
    <path
       style="fill:#ffff00;stroke:none;stroke-width:0;stroke-miterlimit:4;stroke-dasharray:none"
       id="path4238"
       d="m 505.71424,497.26996 c 0,27.70333 0,55.40666 0,83.10999 0,38.29467 0,76.58934 0,114.884 0,16.3373 0,32.67459 0,49.01188 0,9.92176 0,19.84352 0,29.76528 -0.43637,9.48207 0.79003,18.88391 1.6402,28.30496 0.30517,6.06414 1.36138,12.05367 2.1548,18.06561 3.6928,28.04217 -35.96482,33.26458 -39.65761,5.22241 l 0,0 c -0.86096,-6.55366 -1.98132,-13.08723 -2.33554,-19.69563 -0.95623,-10.61251 -2.23393,-21.21848 -1.80185,-31.89735 0,-9.92176 0,-19.84352 0,-29.76528 0,-16.33729 0,-32.67458 0,-49.01188 0,-38.29466 0,-76.58933 0,-114.884 0,-27.70333 0,-55.40666 0,-83.10999 0,-28.28427 40,-28.28427 40,0 z"
       inkscape:connector-curvature="0" />
    <path
       style="fill:#ffff00;stroke:none;stroke-width:0;stroke-miterlimit:4;stroke-dasharray:none"
       id="path4246"
       d="m 526.54324,465.84243 c 26.80615,4.85829 52.03509,15.80073 77.43207,25.28544 24.56689,9.71112 49.29838,19.40208 71.64727,33.64216 2.22104,1.74161 4.78243,3.12026 6.66312,5.22484 12.58355,14.08149 13.5227,27.40034 2.31441,43.32707 -6.44494,9.15813 -18.40284,14.83402 -27.53317,20.25647 -6.45253,2.85511 -12.77956,6.01261 -19.35759,8.56533 -17.66063,6.8535 -32.74859,10.88507 -51.16042,15.8039 -26.44836,7.06583 -53.14073,13.14809 -79.66986,19.89603 -5.29726,1.74003 -20.29618,5.24257 -25.6947,10.79312 -0.61875,0.63617 1.55615,1.36511 2.41142,1.12831 1.96544,-0.54417 3.2824,-3.94556 5.19357,-3.23391 3.31949,1.23605 4.69438,5.30987 7.17416,7.8392 4.44855,4.53742 9.06933,8.90273 13.60399,13.35409 41.93802,36.62529 91.71573,62.2806 140.54195,88.30521 7.54143,3.93065 15.08287,7.8613 22.6243,11.79195 25.08144,13.0737 6.59243,48.5442 -18.489,35.4705 l 0,0 c -7.65072,-3.98826 -15.30145,-7.97652 -22.95217,-11.96478 -52.36119,-27.91771 -105.64531,-55.62824 -150.16643,-95.47656 -9.74846,-10.07654 -27.03493,-25.34468 -31.20371,-39.86638 -10.93769,-38.10083 18.3482,-48.30961 47.09958,-56.90722 26.24897,-6.67187 52.64797,-12.72263 78.82657,-19.67178 16.87489,-4.47947 29.74761,-7.86673 45.87877,-13.93015 5.25322,-1.97459 10.32038,-4.4126 15.48057,-6.6189 3.26783,-1.75598 6.55318,-3.47972 9.80346,-5.26795 1.46793,-0.80761 2.75302,-3.02657 4.34964,-2.51874 1.36112,0.43293 0.38085,2.85903 0.90165,4.18901 0.66463,1.69729 1.44861,3.40284 2.61852,4.80062 0.54381,0.64972 2.70836,1.82148 2.30186,1.07809 -0.6732,-1.23109 -2.13649,-1.81947 -3.20474,-2.72921 -19.79167,-12.91007 -42.2637,-20.85517 -63.9992,-29.80891 -24.98348,-9.33317 -49.72899,-19.91734 -76.08499,-24.80952 -26.83282,-8.94427 -14.18371,-46.8916 12.64911,-37.94733 z"
       inkscape:connector-curvature="0" />
    <path
       style="fill:#ffff00;stroke:none;stroke-width:0;stroke-miterlimit:4;stroke-dasharray:none"
       id="path4258"
       d="m 356.05197,396.68275 c 5.71664,-4.59241 12.77686,-7.26653 20.07066,-8.01642 2.65953,-0.27343 5.34321,-0.20402 8.01481,-0.30603 14.52281,0.84836 29.21799,3.29817 42.93636,8.30986 2.32574,0.84966 4.55568,1.9416 6.83353,2.9124 7.00755,3.96653 15.33672,9.15146 16.24947,18.15646 0.73448,7.24624 -1.45477,9.465 -4.52282,15.54166 -10.84075,15.04711 -23.76511,28.41777 -36.05817,42.25757 -5.40707,6.05461 -11.55948,11.37667 -17.07858,17.32097 -0.97018,1.04492 -4.26052,4.79873 -5.15079,6.38438 -0.10802,0.19239 0.0711,0.4355 0.10671,0.65326 2.03915,-3.88953 1.29618,-2.91001 5.9634,-0.77329 1.89568,0.86788 3.78719,1.75641 5.74516,2.47275 2.24682,0.82202 4.56811,1.42406 6.85217,2.13609 7.88474,2.38701 15.96002,4.04114 23.99628,5.81483 13.80954,3.04901 9.49759,22.57866 -4.31195,19.52965 l 0,0 c -8.63797,-1.90785 -17.31367,-3.70494 -25.78167,-6.29658 -11.46091,-3.74332 -29.57421,-9.05967 -31.59039,-23.31898 -0.32588,-2.30482 0.36356,-4.64126 0.54534,-6.96189 0.81372,-1.73689 1.46469,-3.55977 2.44116,-5.21066 0.83551,-1.41257 1.92591,-2.66031 2.96549,-3.93024 6.20447,-7.57922 13.76302,-13.87348 20.34521,-21.10276 11.37461,-12.80368 23.20505,-25.2408 33.62287,-38.8577 0.52448,-0.65427 0.80035,-1.63802 1.57344,-1.96281 0.71487,-0.30032 1.23314,1.96534 1.81591,1.45385 1.00205,-0.87948 -5.53843,-4.90924 -5.71427,-4.97017 -1.60217,-0.71905 -3.15962,-1.54746 -4.80651,-2.15716 -11.66128,-4.31718 -24.15807,-6.46647 -36.50617,-7.40704 -5.47292,-6e-5 -11.28099,0.11561 -15.75296,3.69243 -10.86429,9.05357 -23.66798,-6.31085 -12.80369,-15.36443 z"
       inkscape:connector-curvature="0" />
  </g>
</svg>
